<!--?xml version="1.0" encoding="utf-8"?-->
<!-- Generator: Adobe Illustrator 18.1.1, SVG Export Plug-In . SVG Version: 6.00 Build 0)  -->

<svg version="1.1" id="_x32_" xmlns="http://www.w3.org/2000/svg" xmlns:xlink="http://www.w3.org/1999/xlink" x="0px" y="0px" viewBox="0 0 512 512" style="width: 256px; height: 256px; opacity: 1;" xml:space="preserve">

<g>
	<path class="st0" d="M118.612,89.297c9.482,0,17.176-7.686,17.176-17.169v-54.96C135.788,7.686,128.094,0,118.612,0
		c-9.482,0-17.177,7.686-17.177,17.169v54.96C101.435,81.611,109.13,89.297,118.612,89.297z" style="fill: rgb(75, 75, 75);"></path>
	<path class="st0" d="M255.993,89.297c9.482,0,17.176-7.686,17.176-17.169v-54.96C273.168,7.686,265.474,0,255.993,0
		c-9.483,0-17.169,7.686-17.169,17.169v54.96C238.824,81.611,246.51,89.297,255.993,89.297z" style="fill: rgb(75, 75, 75);"></path>
	<path class="st0" d="M427.001,44.899h-2.714v27.229c0,17.038-13.861,30.906-30.914,30.906c-17.038,0-30.914-13.869-30.914-30.906
		V44.899h-75.552v27.229c0,17.038-13.87,30.906-30.914,30.906c-17.038,0-30.907-13.869-30.907-30.906V44.899h-75.56v27.229
		c0,17.038-13.869,30.906-30.914,30.906c-17.038,0-30.914-13.869-30.914-30.906V44.899h-2.698
		c-37.074,0-67.133,30.058-67.133,67.133v332.835c0,37.074,30.058,67.133,67.133,67.133h342.002
		c37.066,0,67.133-30.058,67.133-67.133V112.032C494.134,74.958,464.067,44.899,427.001,44.899z M466.643,439.771
		c0,24.716-20.029,44.753-44.745,44.753H90.103c-24.716,0-44.76-20.037-44.76-44.753V190.482h421.3V439.771z" style="fill: rgb(75, 75, 75);"></path>
	<path class="st0" d="M393.373,89.297c9.483,0,17.176-7.686,17.176-17.169v-54.96C410.549,7.686,402.855,0,393.373,0
		c-9.483,0-17.177,7.686-17.177,17.169v54.96C376.196,81.611,383.89,89.297,393.373,89.297z" style="fill: rgb(75, 75, 75);"></path>
</g>
</svg>
